<svg width="59" height="65" viewBox="0 0 59 65" fill="none" xmlns="http://www.w3.org/2000/svg">
<path d="M3 38.4V26.6C3 15.4756 3 9.91185 6.45089 6.4574C9.90178 3.00295 15.4521 3 26.5556 3H32.4444C43.5479 3 49.1012 3 52.5491 6.4574C54.4748 8.38375 55.3257 10.965 55.6997 14.8M56 26.6V38.4C56 49.5245 56 55.0881 52.5491 58.5426C49.0982 61.997 43.5479 62 32.4444 62H26.5556C15.4521 62 9.89883 62 6.45089 58.5426C4.52522 56.6162 3.67428 54.035 3.30033 50.2M17.7222 38.4H32.4444M17.7222 26.6H20.6667M41.2778 26.6H29.5" stroke="black" stroke-width="5" stroke-linecap="round"/>
</svg>
