<svg width="86" height="86" viewBox="0 0 86 86" fill="none" xmlns="http://www.w3.org/2000/svg">
<path d="M61.4286 15.3572V46.0715M61.4286 15.3572L52.2143 3.07153M61.4286 15.3572L70.6428 3.07153M3.07141 67.5715L18.0846 80.0784C20.2924 81.9166 23.0745 82.923 25.9474 82.9225H65.5197C68.3454 82.9225 70.6428 80.6312 70.6428 77.8055C70.6428 72.1541 66.0603 67.5654 60.4027 67.5654H32.8888M82.9286 15.3572H39.9286V46.0715H82.9286V15.3572Z" stroke="black" stroke-width="5" stroke-linecap="round" stroke-linejoin="round"/>
<path d="M21.5 61.4287L26.1071 66.0358C27.329 67.2577 28.9863 67.9442 30.7143 67.9442C32.4423 67.9442 34.0995 67.2577 35.3214 66.0358C36.5433 64.8139 37.2298 63.1567 37.2298 61.4287C37.2298 59.7007 36.5433 58.0434 35.3214 56.8215L28.1711 49.6651C27.0286 48.5238 25.6723 47.619 24.1797 47.0024C22.6872 46.3858 21.0877 46.0695 19.4728 46.0715H3.07141" stroke="black" stroke-width="5" stroke-linecap="round" stroke-linejoin="round"/>
</svg>
