<svg width="78" height="78" viewBox="0 0 78 78" fill="none" xmlns="http://www.w3.org/2000/svg">
<path d="M53.3333 6.75008C53.3333 5.79972 52.9558 4.88829 52.2838 4.21628C51.6118 3.54428 50.7004 3.16675 49.75 3.16675H28.25C27.2996 3.16675 26.3882 3.54428 25.7162 4.21628C25.0442 4.88829 24.6667 5.79972 24.6667 6.75008V24.6667H6.75001C5.79965 24.6667 4.88821 25.0443 4.21621 25.7163C3.5442 26.3883 3.16667 27.2997 3.16667 28.2501V49.7501C3.16667 50.7004 3.5442 51.6119 4.21621 52.2839C4.88821 52.9559 5.79965 53.3334 6.75001 53.3334H24.6667V71.2501C24.6667 72.2004 25.0442 73.1119 25.7162 73.7839C26.3882 74.4559 27.2996 74.8334 28.25 74.8334H49.75C50.7004 74.8334 51.6118 74.4559 52.2838 73.7839C52.9558 73.1119 53.3333 72.2004 53.3333 71.2501V53.3334H71.25C72.2004 53.3334 73.1118 52.9559 73.7838 52.2839C74.4558 51.6119 74.8333 50.7004 74.8333 49.7501V28.2501C74.8333 27.2997 74.4558 26.3883 73.7838 25.7163C73.1118 25.0443 72.2004 24.6667 71.25 24.6667H53.3333V6.75008Z" stroke="black" stroke-width="5" stroke-linecap="round" stroke-linejoin="round"/>
</svg>
