<svg width="423" height="354" viewBox="0 0 423 354" fill="none" xmlns="http://www.w3.org/2000/svg">
<g clip-path="url(#clip0_106_75)">
<path d="M372.846 21.5043H0.584732C0.428494 21.5008 0.279827 21.4363 0.170556 21.3247C0.0612843 21.213 9.15527e-05 21.0631 9.15527e-05 20.9069C9.15527e-05 20.7507 0.0612843 20.6008 0.170556 20.4891C0.279827 20.3775 0.428494 20.313 0.584732 20.3096H372.846C373.002 20.313 373.151 20.3775 373.26 20.4891C373.369 20.6008 373.43 20.7507 373.43 20.9069C373.43 21.0631 373.369 21.213 373.26 21.3247C373.151 21.4363 373.002 21.5008 372.846 21.5043Z" fill="#CACACA"/>
<path d="M13.7456 13.1416C17.2979 13.1416 20.1776 10.1997 20.1776 6.57078C20.1776 2.94184 17.2979 0 13.7456 0C10.1933 0 7.31364 2.94184 7.31364 6.57078C7.31364 10.1997 10.1933 13.1416 13.7456 13.1416Z" fill="#3F3D56"/>
<path d="M35.9651 13.1416C39.5174 13.1416 42.397 10.1997 42.397 6.57078C42.397 2.94184 39.5174 0 35.9651 0C32.4128 0 29.5331 2.94184 29.5331 6.57078C29.5331 10.1997 32.4128 13.1416 35.9651 13.1416Z" fill="#3F3D56"/>
<path d="M58.1846 13.1416C61.7368 13.1416 64.6165 10.1997 64.6165 6.57078C64.6165 2.94184 61.7368 0 58.1846 0C54.6323 0 51.7526 2.94184 51.7526 6.57078C51.7526 10.1997 54.6323 13.1416 58.1846 13.1416Z" fill="#3F3D56"/>
<path d="M359.53 1.62842H343.747C343.434 1.63462 343.136 1.76318 342.917 1.98647C342.698 2.20977 342.575 2.51 342.575 2.8227C342.575 3.1354 342.698 3.43563 342.917 3.65892C343.136 3.88222 343.434 4.01077 343.747 4.01698H359.53C359.843 4.01077 360.141 3.88222 360.36 3.65892C360.579 3.43563 360.702 3.1354 360.702 2.8227C360.702 2.51 360.579 2.20977 360.36 1.98647C360.141 1.76318 359.843 1.63462 359.53 1.62842Z" fill="#3F3D56"/>
<path d="M359.53 6.11182H343.747C343.434 6.11802 343.136 6.24658 342.917 6.46987C342.698 6.69317 342.575 6.99341 342.575 7.3061C342.575 7.6188 342.698 7.91903 342.917 8.14233C343.136 8.36562 343.434 8.49418 343.747 8.50038H359.53C359.843 8.49418 360.141 8.36562 360.36 8.14233C360.579 7.91903 360.702 7.6188 360.702 7.3061C360.702 6.99341 360.579 6.69317 360.36 6.46987C360.141 6.24658 359.843 6.11802 359.53 6.11182Z" fill="#3F3D56"/>
<path d="M359.53 10.5889H343.747C343.434 10.5951 343.136 10.7236 342.917 10.9469C342.698 11.1702 342.575 11.4704 342.575 11.7831C342.575 12.0958 342.698 12.3961 342.917 12.6194C343.136 12.8427 343.434 12.9712 343.747 12.9774H359.53C359.843 12.9712 360.141 12.8427 360.36 12.6194C360.579 12.3961 360.702 12.0958 360.702 11.7831C360.702 11.4704 360.579 11.1702 360.36 10.9469C360.141 10.7236 359.843 10.5951 359.53 10.5889Z" fill="#3F3D56"/>
<path d="M353.637 41.6738H14.5696C12.6922 41.6766 10.8924 42.4232 9.56479 43.7499C8.23721 45.0765 7.49015 46.8751 7.48735 48.7513V49.8926C7.49015 51.7688 8.23721 53.5673 9.56479 54.894C10.8924 56.2207 12.6922 56.9672 14.5696 56.97H353.637C355.514 56.9672 357.314 56.2207 358.641 54.894C359.969 53.5673 360.716 51.7688 360.719 49.8926V48.7513C360.716 46.8751 359.969 45.0765 358.641 43.7499C357.314 42.4232 355.514 41.6766 353.637 41.6738Z" fill="#F0F0F0"/>
<path d="M55.4888 52.1462H23.2135C22.4913 52.1452 21.7991 51.8577 21.2889 51.3471C20.7786 50.8364 20.492 50.1443 20.492 49.4226C20.492 48.701 20.7786 48.0088 21.2889 47.4982C21.7991 46.9875 22.4913 46.7001 23.2135 46.6991H55.4888C59.0036 46.65 59.0387 52.1957 55.4888 52.1462Z" fill="white"/>
<path d="M152.039 52.1462H119.763C119.041 52.1452 118.349 51.8577 117.839 51.3471C117.329 50.8364 117.042 50.1443 117.042 49.4226C117.042 48.701 117.329 48.0088 117.839 47.4982C118.349 46.9875 119.041 46.7001 119.763 46.6991H152.039C155.553 46.65 155.589 52.1957 152.039 52.1462Z" fill="white"/>
<path d="M248.589 52.1462H216.313C215.591 52.1452 214.899 51.8577 214.389 51.3471C213.879 50.8364 213.592 50.1443 213.592 49.4226C213.592 48.701 213.879 48.0088 214.389 47.4982C214.899 46.9875 215.591 46.7001 216.313 46.6991H248.589C252.103 46.65 252.139 52.1957 248.589 52.1462Z" fill="white"/>
<path d="M340.134 52.4402H307.859C307.136 52.4402 306.443 52.1532 305.932 51.6424C305.421 51.1317 305.134 50.4389 305.134 49.7166C305.134 48.9942 305.421 48.3015 305.932 47.7907C306.443 47.2799 307.136 46.993 307.859 46.993H340.134C343.649 46.944 343.684 52.4896 340.134 52.4402Z" fill="#0086DF"/>
<path d="M289.778 41.6738H288.601V56.97H289.778V41.6738Z" fill="white"/>
<path d="M167.94 268.065H29.5596C28.3266 268.064 27.1445 267.573 26.2727 266.702C25.4008 265.831 24.9104 264.65 24.9089 263.418V243.165C24.9104 241.932 25.4008 240.751 26.2727 239.88C27.1445 239.009 28.3266 238.519 29.5596 238.517H167.94C169.173 238.519 170.355 239.009 171.227 239.88C172.099 240.751 172.589 241.932 172.591 243.165V263.418C172.589 264.65 172.099 265.831 171.227 266.702C170.355 267.573 169.173 268.064 167.94 268.065Z" fill="#F0F0F0"/>
<path d="M154.495 264.93H32.6973C31.4643 264.929 30.2822 264.439 29.4104 263.567C28.5385 262.696 28.0481 261.515 28.0466 260.283V246.302C28.0481 245.07 28.5385 243.888 29.4104 243.017C30.2822 242.146 31.4643 241.656 32.6973 241.654H164.803C166.036 241.656 167.218 242.146 168.09 243.017C168.962 243.888 169.452 245.07 169.454 246.302V249.981C169.449 253.945 167.872 257.744 165.067 260.547C162.263 263.349 158.461 264.926 154.495 264.93Z" fill="white"/>
<path d="M112.482 251.85H56.8632C56.5451 251.85 56.24 251.724 56.0151 251.499C55.7902 251.274 55.6638 250.97 55.6638 250.652C55.6638 250.334 55.7902 250.029 56.0151 249.804C56.24 249.579 56.5451 249.453 56.8632 249.453H112.482C112.8 249.453 113.105 249.579 113.33 249.804C113.555 250.029 113.681 250.334 113.681 250.652C113.681 250.97 113.555 251.274 113.33 251.499C113.105 251.724 112.8 251.85 112.482 251.85Z" fill="#E6E6E6"/>
<path d="M140.637 256.753H56.8632C56.7055 256.753 56.5492 256.722 56.4034 256.662C56.2576 256.602 56.125 256.514 56.0134 256.403C55.9017 256.291 55.8132 256.159 55.7527 256.013C55.6923 255.868 55.6612 255.712 55.6612 255.554C55.6612 255.396 55.6923 255.24 55.7527 255.095C55.8132 254.949 55.9017 254.817 56.0134 254.706C56.125 254.594 56.2576 254.506 56.4034 254.446C56.5492 254.386 56.7055 254.355 56.8632 254.355H140.637C140.954 254.356 141.259 254.483 141.483 254.707C141.707 254.932 141.833 255.237 141.833 255.554C141.833 255.871 141.707 256.176 141.483 256.401C141.259 256.625 140.954 256.752 140.637 256.753Z" fill="#E6E6E6"/>
<path d="M176.779 215.345H18.9968C17.7377 215.343 16.5307 214.843 15.6404 213.953C14.7502 213.064 14.2494 211.857 14.2479 210.599V90.0725C14.2494 88.8144 14.7502 87.6082 15.6404 86.7186C16.5307 85.8289 17.7377 85.3285 18.9968 85.3271H176.779C178.038 85.3285 179.245 85.8289 180.136 86.7186C181.026 87.6082 181.527 88.8144 181.528 90.0725V210.599C181.527 211.857 181.026 213.064 180.136 213.953C179.245 214.843 178.038 215.343 176.779 215.345Z" fill="white"/>
<path d="M176.779 215.933H18.9969C17.5817 215.931 16.2251 215.369 15.2245 214.369C14.2238 213.369 13.6609 212.013 13.6593 210.599V90.0724C13.6609 88.6583 14.2238 87.3026 15.2245 86.3027C16.2251 85.3028 17.5818 84.7403 18.9969 84.7388H176.779C178.194 84.7403 179.551 85.3028 180.552 86.3027C181.552 87.3026 182.115 88.6583 182.117 90.0724V210.599C182.115 212.013 181.552 213.369 180.552 214.369C179.551 215.369 178.194 215.931 176.779 215.933ZM18.9969 85.9154C17.8939 85.9166 16.8366 86.355 16.0567 87.1343C15.2768 87.9136 14.838 88.9703 14.8367 90.0724V210.599C14.838 211.701 15.2767 212.758 16.0566 213.537C16.8365 214.317 17.8939 214.755 18.9969 214.756H176.779C177.882 214.755 178.94 214.317 179.72 213.537C180.5 212.758 180.938 211.701 180.939 210.599V90.0724C180.938 88.9702 180.499 87.9136 179.72 87.1343C178.94 86.355 177.882 85.9166 176.779 85.9154L18.9969 85.9154Z" fill="#F0F0F0"/>
<path d="M14.6124 192.4V210.599C14.6141 211.761 15.0766 212.874 15.8984 213.695C16.7202 214.517 17.8344 214.979 18.9967 214.98H176.78C177.942 214.979 179.056 214.517 179.878 213.695C180.7 212.874 181.162 211.761 181.164 210.599V192.4H14.6124Z" fill="#F0F0F0"/>
<path d="M16.0992 86.0947L15.4645 87.0854L180.846 192.896L181.481 191.905L16.0992 86.0947Z" fill="#F0F0F0"/>
<path d="M181.313 86.0947L15.9314 191.905L16.5662 192.896L181.948 87.0855L181.313 86.0947Z" fill="#F0F0F0"/>
<path d="M321.066 345.805L313.772 345.804L310.302 317.689L321.067 317.69L321.066 345.805Z" fill="#A0616A"/>
<path d="M320.872 343.422L313.089 340.263L312.859 340.169L308.562 343.422C306.203 343.422 303.936 344.332 302.232 345.962C300.529 347.592 299.521 349.816 299.419 352.171C299.407 352.3 299.407 352.435 299.407 352.571V352.871H322.926V343.422H320.872Z" fill="#2F2E41"/>
<path d="M303.984 339.021L297.103 341.441L284.491 316.069L294.647 312.5L303.984 339.021Z" fill="#A0616A"/>
<path d="M303.01 336.839L294.619 336.44L294.371 336.427L291.397 340.922C289.173 341.704 287.336 343.314 286.27 345.416C285.205 347.519 284.993 349.952 285.678 352.207C285.71 352.333 285.755 352.46 285.8 352.588L285.9 352.871L308.086 345.07L304.948 336.157L303.01 336.839Z" fill="#2F2E41"/>
<path d="M323.644 224.578C330.317 224.319 322.05 277.461 322.05 277.461C322.05 277.461 324.469 324.118 323.956 326.566C323.443 329.015 323.891 335.618 323.891 335.618C322.584 333.24 309.096 335.035 309.096 335.035L307.261 287.749L297.892 249.861L284.904 275.258L297.352 314.24C297.352 314.24 302.394 318.902 301.858 320.744C301.322 322.586 288.116 326.741 285.69 326.835C283.263 326.929 284.359 323.851 284.241 320.819C284.124 317.788 272.705 289.695 268.689 280.136C264.672 270.577 267.795 257.099 269.845 247.305C271.895 237.511 282.681 219.132 282.681 219.132C296.069 204.041 316.971 224.836 323.644 224.578Z" fill="#2F2E41"/>
<path d="M242.32 181.631C242.685 182.329 243.199 182.939 243.826 183.416C244.453 183.894 245.176 184.229 245.947 184.397C246.717 184.565 247.514 184.562 248.283 184.389C249.052 184.216 249.774 183.876 250.397 183.394L266.444 193.856L266.396 183.906L251.164 175.496C250.284 174.503 249.07 173.868 247.753 173.71C246.435 173.551 245.105 173.882 244.015 174.638C242.925 175.394 242.15 176.524 241.838 177.813C241.525 179.102 241.697 180.46 242.32 181.631Z" fill="#A0616A"/>
<path d="M320.178 233.097C303.629 233.097 294.509 229.787 289.667 226.831C283.745 223.217 282.732 219.405 282.691 219.244L282.68 219.198L283.256 211.95L283.508 211.386C284.67 208.788 284.824 205.851 283.94 203.145L283.922 203.09L283.927 203.032L287.796 152.881L301.49 148.399L305.474 144.399L323.21 144.142L325.681 149.148L339.664 154.409L332.795 195.271L329.501 200.943L330.827 207.122L330.817 207.178L326.497 232.946L326.259 232.957C324.129 233.052 322.102 233.099 320.178 233.097Z" fill="#3F3D56"/>
<path d="M277.365 201.809L270.873 197.963L270.466 197.376C269.64 196.187 268.546 195.209 267.272 194.519C265.999 193.83 264.582 193.448 263.134 193.406L263.058 193.403L254.117 188.15L257.823 177.299L271.841 181.438L281.613 157.173C282.15 155.84 283.046 154.682 284.202 153.828C285.358 152.974 286.728 152.457 288.16 152.335C289.592 152.213 291.031 152.49 292.315 153.135C293.599 153.781 294.678 154.77 295.434 155.992C296.207 157.27 296.608 158.738 296.592 160.231V176.108L296.533 176.187L277.365 201.809Z" fill="#3F3D56"/>
<path d="M320.77 223.764C320.908 222.989 321.216 222.253 321.67 221.61C322.124 220.966 322.714 220.429 323.398 220.038C324.082 219.646 324.843 219.409 325.629 219.344C326.414 219.278 327.205 219.386 327.944 219.658L340.105 204.861L343.049 214.366L331.05 226.961C330.509 228.172 329.543 229.143 328.333 229.689C327.124 230.235 325.756 230.32 324.489 229.926C323.222 229.532 322.143 228.687 321.458 227.551C320.772 226.416 320.527 225.068 320.77 223.764Z" fill="#A0616A"/>
<path d="M338.952 221.894L330.877 213.824L336.017 201.308L343.467 191.143C335.528 187.281 329.57 178.132 325.252 170.559L325.203 170.474L326.278 162.059C326.53 160.09 327.319 158.229 328.559 156.68C329.637 155.332 331.023 154.262 332.599 153.559C334.176 152.856 335.899 152.54 337.623 152.639C339.346 152.737 341.022 153.247 342.508 154.125C343.995 155.003 345.249 156.223 346.167 157.685L360.644 189.847L360.481 190.09L348.836 209.928L345.658 211.987L338.952 221.894Z" fill="#3F3D56"/>
<path d="M327.076 127.272C326.544 131.15 324.493 134.658 321.374 137.026C318.254 139.393 314.322 140.427 310.441 139.899C306.56 139.371 303.047 137.325 300.674 134.211C298.302 131.096 297.263 127.168 297.787 123.289L297.816 123.079C298.428 119.252 300.522 115.818 303.644 113.519C306.767 111.221 310.669 110.241 314.508 110.791C318.347 111.341 321.816 113.377 324.167 116.46C326.517 119.544 327.561 123.426 327.072 127.271L327.076 127.272Z" fill="#A0616A"/>
<path d="M323.315 134.879C324.074 133.338 324.854 131.684 324.64 129.98C324.427 128.276 322.755 126.648 321.113 127.154C320.131 127.457 319.389 128.426 318.362 128.475C316.95 128.544 316.14 126.928 315.701 125.585L313.91 120.116C312.191 121.455 310.198 122.398 308.071 122.878C305.945 123.358 303.74 123.364 301.611 122.893C299.949 122.514 298.27 121.773 297.295 120.375C296.32 118.977 296.326 116.809 297.663 115.752C298.319 115.234 299.192 115.037 299.818 114.484C300.207 114.141 300.475 113.682 300.582 113.175C300.69 112.668 300.631 112.139 300.415 111.668C300.198 111.197 299.836 110.808 299.381 110.559C298.927 110.31 298.404 110.213 297.89 110.284L302.398 109.721L301.055 107.294C301.565 107.641 302.143 107.878 302.75 107.989C303.357 108.1 303.981 108.084 304.582 107.94C305.795 107.722 306.937 107.223 308.123 106.89C310.999 106.156 314.036 106.381 316.773 107.529C319.509 108.677 321.796 110.687 323.285 113.253C324.395 112.883 325.59 112.858 326.714 113.182C327.838 113.506 328.836 114.164 329.577 115.068C330.784 116.599 331.112 118.641 331.159 120.589C331.247 124.43 330.409 128.236 328.715 131.685C328.23 132.78 327.532 133.769 326.663 134.595C326.225 135.004 325.703 135.312 325.133 135.498C324.564 135.685 323.96 135.744 323.365 135.672" fill="#2F2E41"/>
<path d="M83.8178 119.683C84.059 123.123 85.0731 126.464 86.7847 129.458C90.392 135.789 96.578 140.373 103.241 143.097C111.564 146.501 120.843 146.606 129.677 145.847C137.882 145.142 146.003 143.508 154.238 143.171C160.607 142.968 166.982 143.12 173.333 143.626C185.656 144.5 197.928 146.122 210.12 148.088C213.422 148.614 216.718 149.179 220.006 149.783C220.317 149.811 220.624 149.868 220.924 149.954C220.984 149.978 221.08 149.959 221.134 149.994C221.233 150.056 220.733 149.835 221.036 150.086C221.459 150.529 221.836 151.014 222.162 151.534L226.665 157.325C227.956 158.985 229.155 161.003 230.824 162.312C232.001 163.22 233.42 163.76 234.904 163.864C236.387 163.967 237.868 163.629 239.16 162.892C240.509 162.041 241.585 160.819 242.259 159.374C243.295 157.475 244.531 155.693 245.946 154.057C251.303 147.811 258.748 143.97 264.976 138.715C267.992 136.274 270.567 133.333 272.587 130.021C274.31 127.024 275.382 123.697 275.731 120.258C276.477 113.274 274.333 106.152 270.726 100.21C266.802 93.827 261.166 88.6715 254.457 85.3295C246.92 81.4924 238.58 79.6233 230.22 78.6919C221.345 77.7031 212.366 77.7061 203.447 77.806C193.437 77.9173 183.445 78.3572 173.472 79.1256C163.485 79.8981 153.537 80.9961 143.629 82.4197C134.122 83.7857 124.498 85.2094 115.192 87.6264C106.97 89.7616 98.772 93.0991 92.6327 99.1461C87.1741 104.523 83.3775 111.88 83.8178 119.683Z" fill="#0086DF"/>
<path d="M129.773 121.904C129.367 121.886 128.969 121.784 128.604 121.604C128.239 121.425 127.915 121.172 127.653 120.861C127.39 120.55 127.195 120.188 127.08 119.798C126.964 119.408 126.931 118.999 126.981 118.596L127.193 116.934C127.233 116.615 127.195 116.291 127.083 115.99C126.97 115.689 126.786 115.42 126.546 115.206L125.297 114.09C124.888 113.725 124.589 113.253 124.435 112.727C124.281 112.201 124.276 111.642 124.423 111.114C124.57 110.586 124.861 110.109 125.265 109.738C125.669 109.367 126.168 109.116 126.707 109.014L128.354 108.702C128.67 108.642 128.966 108.506 129.218 108.306C129.469 108.107 129.668 107.849 129.798 107.555L130.474 106.021C130.695 105.519 131.053 105.09 131.506 104.781C131.958 104.471 132.489 104.295 133.037 104.271C133.585 104.248 134.128 104.377 134.606 104.646C135.084 104.915 135.477 105.312 135.741 105.793L136.547 107.261C136.701 107.543 136.922 107.783 137.191 107.961C137.459 108.138 137.766 108.248 138.086 108.28L139.753 108.449C140.299 108.504 140.818 108.711 141.253 109.045C141.687 109.38 142.019 109.83 142.211 110.343C142.403 110.857 142.447 111.414 142.339 111.951C142.231 112.488 141.974 112.985 141.598 113.384L140.45 114.604C140.23 114.837 140.07 115.121 139.984 115.431C139.898 115.74 139.888 116.066 139.956 116.38L140.311 118.018C140.427 118.553 140.39 119.111 140.206 119.627C140.021 120.143 139.696 120.597 139.267 120.938C138.838 121.279 138.322 121.493 137.777 121.557C137.232 121.62 136.681 121.529 136.185 121.296L134.668 120.582C134.378 120.444 134.058 120.38 133.737 120.393C133.415 120.407 133.102 120.499 132.824 120.661L131.376 121.504C130.891 121.788 130.335 121.927 129.773 121.904Z" fill="white"/>
<path d="M153.378 121.219C152.631 121.185 151.923 120.869 151.398 120.336C151.081 120 150.845 119.597 150.706 119.156C150.568 118.716 150.532 118.249 150.601 117.793L150.795 116.268C150.836 115.943 150.798 115.613 150.683 115.307C150.569 115 150.381 114.726 150.137 114.508L148.978 113.473C148.636 113.182 148.364 112.818 148.181 112.408C147.998 111.998 147.908 111.552 147.919 111.103C147.944 110.438 148.195 109.802 148.63 109.298C149.065 108.794 149.658 108.452 150.312 108.329L151.94 108.02C152.262 107.959 152.564 107.821 152.82 107.617C153.077 107.413 153.28 107.15 153.412 106.85L154.018 105.474C154.235 104.951 154.592 104.499 155.05 104.166C155.507 103.833 156.048 103.633 156.612 103.588C157.165 103.556 157.716 103.683 158.2 103.952C158.684 104.221 159.081 104.622 159.346 105.108L160.142 106.559C160.3 106.846 160.525 107.091 160.799 107.272C161.072 107.453 161.385 107.565 161.712 107.598L163.257 107.754C163.705 107.789 164.14 107.923 164.529 108.147C164.919 108.372 165.253 108.68 165.508 109.05C165.879 109.603 166.05 110.265 165.994 110.928C165.939 111.591 165.66 112.215 165.203 112.699L164.068 113.905C163.844 114.143 163.681 114.432 163.594 114.747C163.506 115.062 163.496 115.394 163.565 115.714L163.892 117.226C163.997 117.663 164.004 118.117 163.912 118.556C163.819 118.996 163.631 119.409 163.359 119.767C162.949 120.292 162.372 120.662 161.723 120.816C161.074 120.969 160.392 120.897 159.789 120.611L158.289 119.904C157.993 119.765 157.668 119.7 157.341 119.714C157.014 119.728 156.695 119.821 156.413 119.986L154.981 120.819C154.496 121.103 153.94 121.242 153.378 121.219Z" fill="white"/>
<path d="M177.044 121.12C176.638 121.101 176.24 120.999 175.875 120.82C175.51 120.64 175.186 120.387 174.924 120.076C174.661 119.765 174.466 119.403 174.351 119.014C174.235 118.624 174.202 118.214 174.252 117.811L174.464 116.149C174.504 115.83 174.466 115.506 174.354 115.205C174.241 114.904 174.057 114.635 173.817 114.421L172.568 113.306C172.159 112.941 171.86 112.468 171.706 111.942C171.551 111.416 171.547 110.858 171.694 110.33C171.841 109.801 172.132 109.325 172.536 108.954C172.94 108.583 173.439 108.332 173.978 108.229L175.625 107.917C175.941 107.857 176.237 107.721 176.489 107.522C176.74 107.322 176.939 107.064 177.069 106.77L177.745 105.236C177.966 104.735 178.324 104.305 178.776 103.996C179.229 103.687 179.76 103.51 180.308 103.487C180.856 103.463 181.399 103.593 181.877 103.862C182.355 104.13 182.748 104.528 183.012 105.008L183.818 106.476C183.972 106.758 184.193 106.998 184.461 107.176C184.73 107.354 185.037 107.463 185.357 107.496L187.024 107.664C187.57 107.719 188.089 107.926 188.524 108.261C188.958 108.595 189.29 109.045 189.482 109.558C189.674 110.072 189.718 110.629 189.61 111.166C189.502 111.704 189.245 112.2 188.869 112.599L187.721 113.819C187.501 114.053 187.34 114.337 187.254 114.646C187.168 114.956 187.159 115.281 187.227 115.595L187.582 117.233C187.698 117.769 187.661 118.326 187.477 118.842C187.292 119.358 186.967 119.812 186.538 120.153C186.109 120.494 185.592 120.709 185.048 120.772C184.503 120.835 183.952 120.745 183.456 120.511L181.939 119.797C181.649 119.66 181.329 119.595 181.008 119.609C180.686 119.622 180.373 119.714 180.095 119.876L178.647 120.719C178.162 121.003 177.606 121.142 177.044 121.12Z" fill="white"/>
<path opacity="0.2" d="M200.064 120.495C199.657 120.477 199.259 120.375 198.894 120.195C198.529 120.016 198.205 119.762 197.943 119.452C197.681 119.141 197.486 118.779 197.37 118.389C197.255 117.999 197.221 117.59 197.272 117.186L197.483 115.524C197.523 115.206 197.486 114.882 197.373 114.581C197.26 114.28 197.076 114.011 196.837 113.797L195.588 112.681C195.179 112.316 194.88 111.844 194.725 111.318C194.571 110.792 194.567 110.233 194.714 109.705C194.86 109.177 195.152 108.7 195.556 108.329C195.959 107.958 196.459 107.707 196.998 107.605L198.644 107.292C198.96 107.233 199.257 107.097 199.508 106.897C199.76 106.697 199.959 106.439 200.089 106.146L200.764 104.612C200.986 104.11 201.343 103.681 201.796 103.371C202.249 103.062 202.779 102.886 203.327 102.862C203.875 102.838 204.419 102.968 204.897 103.237C205.374 103.506 205.768 103.903 206.032 104.383L206.837 105.852C206.992 106.134 207.213 106.374 207.481 106.552C207.749 106.729 208.056 106.839 208.377 106.871L210.044 107.04C210.589 107.095 211.109 107.301 211.543 107.636C211.977 107.971 212.309 108.421 212.501 108.934C212.693 109.447 212.738 110.004 212.629 110.542C212.521 111.079 212.265 111.575 211.889 111.975L210.74 113.195C210.52 113.428 210.36 113.712 210.274 114.022C210.188 114.331 210.179 114.657 210.247 114.971L210.601 116.609C210.717 117.144 210.681 117.702 210.496 118.218C210.312 118.734 209.987 119.188 209.557 119.529C209.128 119.87 208.612 120.084 208.067 120.147C207.522 120.211 206.971 120.12 206.475 119.887L204.959 119.173C204.668 119.035 204.348 118.97 204.027 118.984C203.706 118.998 203.393 119.09 203.115 119.252L201.666 120.095C201.181 120.378 200.625 120.517 200.064 120.495Z" fill="black"/>
<path opacity="0.2" d="M223.083 119.871C222.677 119.853 222.279 119.751 221.914 119.571C221.549 119.392 221.225 119.138 220.962 118.827C220.7 118.517 220.505 118.155 220.39 117.765C220.274 117.375 220.241 116.966 220.291 116.562L220.502 114.9C220.543 114.582 220.505 114.258 220.392 113.957C220.28 113.656 220.096 113.387 219.856 113.173L218.607 112.057C218.198 111.692 217.899 111.22 217.745 110.694C217.59 110.168 217.586 109.609 217.733 109.081C217.88 108.553 218.171 108.076 218.575 107.705C218.979 107.334 219.478 107.083 220.017 106.981L221.664 106.668C221.979 106.608 222.276 106.473 222.527 106.273C222.779 106.073 222.978 105.815 223.108 105.522L223.784 103.988C224.005 103.486 224.362 103.057 224.815 102.747C225.268 102.438 225.798 102.262 226.346 102.238C226.894 102.214 227.438 102.344 227.916 102.613C228.394 102.882 228.787 103.279 229.051 103.759L229.857 105.228C230.011 105.51 230.232 105.75 230.5 105.928C230.768 106.105 231.076 106.215 231.396 106.247L233.063 106.416C233.609 106.471 234.128 106.677 234.562 107.012C234.997 107.347 235.329 107.797 235.521 108.31C235.713 108.823 235.757 109.38 235.649 109.918C235.54 110.455 235.284 110.951 234.908 111.351L233.76 112.571C233.539 112.804 233.379 113.088 233.293 113.398C233.207 113.707 233.198 114.033 233.266 114.347L233.62 115.985C233.736 116.52 233.7 117.078 233.516 117.594C233.331 118.11 233.006 118.564 232.577 118.905C232.147 119.246 231.631 119.46 231.087 119.523C230.542 119.587 229.99 119.496 229.494 119.263L227.978 118.549C227.688 118.411 227.368 118.346 227.046 118.36C226.725 118.374 226.412 118.466 226.134 118.628L224.686 119.471C224.201 119.754 223.645 119.893 223.083 119.871Z" fill="black"/>
<path d="M369.74 316.142L370.414 301.011C377.434 297.261 385.264 295.281 393.223 295.241C382.268 304.192 383.637 321.445 376.21 333.481C373.865 337.218 370.708 340.379 366.974 342.73C363.24 345.082 359.025 346.563 354.64 347.065L345.472 352.674C344.214 345.666 344.491 338.469 346.285 331.578C348.078 324.688 351.346 318.267 355.861 312.76C358.425 309.696 361.365 306.966 364.611 304.635C366.807 310.421 369.74 316.142 369.74 316.142Z" fill="#F2F2F2"/>
<path d="M422.299 354H176.578C176.392 354 176.214 353.926 176.083 353.795C175.951 353.664 175.877 353.485 175.877 353.3C175.877 353.114 175.951 352.936 176.083 352.804C176.214 352.673 176.392 352.599 176.578 352.599H422.299C422.485 352.599 422.663 352.673 422.795 352.804C422.926 352.936 423 353.114 423 353.3C423 353.485 422.926 353.664 422.795 353.795C422.663 353.926 422.485 354 422.299 354Z" fill="#CACACA"/>
</g>
<defs>
<clipPath id="clip0_106_75">
<rect width="423" height="354" fill="white"/>
</clipPath>
</defs>
</svg>
